<svg width="1500" height="500" viewBox="0 0 1500 500" fill="none" xmlns="http://www.w3.org/2000/svg">
<path d="M745.112 200.376H803.608V214.968H761.24V238.776H801.176V253.368H761.24V291H745.112V200.376ZM817.46 229.56H832.82V291H817.46V229.56ZM815.284 208.696C815.284 206.221 816.18 204.088 817.972 202.296C819.849 200.419 822.196 199.48 825.012 199.48C827.828 199.48 830.175 200.376 832.052 202.168C834.015 203.875 834.996 206.051 834.996 208.696C834.996 211.341 834.015 213.56 832.052 215.352C830.175 217.059 827.828 217.912 825.012 217.912C822.196 217.912 819.849 217.016 817.972 215.224C816.18 213.347 815.284 211.171 815.284 208.696ZM850.454 229.56H865.046V239.416H865.302C866.753 236.344 868.971 233.699 871.958 231.48C874.945 229.176 878.998 228.024 884.118 228.024C888.214 228.024 891.67 228.707 894.486 230.072C897.387 231.437 899.734 233.229 901.526 235.448C903.318 237.667 904.598 240.227 905.366 243.128C906.134 246.029 906.518 249.059 906.518 252.216V291H891.158V259.896C891.158 258.189 891.073 256.312 890.902 254.264C890.731 252.131 890.262 250.168 889.494 248.376C888.811 246.499 887.702 244.963 886.166 243.768C884.63 242.488 882.539 241.848 879.894 241.848C877.334 241.848 875.158 242.275 873.366 243.128C871.659 243.981 870.209 245.133 869.014 246.584C867.905 248.035 867.094 249.699 866.582 251.576C866.07 253.453 865.814 255.416 865.814 257.464V291H850.454V229.56ZM916.786 242.616V229.56H929.458V211.768H944.818V229.56H961.714V242.616H944.818V269.496C944.818 272.568 945.373 275 946.482 276.792C947.677 278.584 949.981 279.48 953.394 279.48C954.759 279.48 956.253 279.352 957.874 279.096C959.495 278.755 960.775 278.243 961.714 277.56V290.488C960.093 291.256 958.087 291.768 955.698 292.024C953.394 292.365 951.346 292.536 949.554 292.536C945.458 292.536 942.087 292.067 939.442 291.128C936.882 290.275 934.834 288.952 933.298 287.16C931.847 285.283 930.823 282.979 930.226 280.248C929.714 277.517 929.458 274.36 929.458 270.776V242.616H916.786ZM965 200.376H982.664L999.688 265.656H999.944L1020.3 200.376H1036.17L1056.14 265.656H1056.39L1074.18 200.376H1090.57L1064.2 291H1048.84L1027.85 222.008H1027.59L1006.6 291H991.752L965 200.376ZM1099.59 229.56H1114.95V291H1099.59V229.56ZM1097.41 208.696C1097.41 206.221 1098.31 204.088 1100.1 202.296C1101.97 200.419 1104.32 199.48 1107.14 199.48C1109.95 199.48 1112.3 200.376 1114.18 202.168C1116.14 203.875 1117.12 206.051 1117.12 208.696C1117.12 211.341 1116.14 213.56 1114.18 215.352C1112.3 217.059 1109.95 217.912 1107.14 217.912C1104.32 217.912 1101.97 217.016 1100.1 215.224C1098.31 213.347 1097.41 211.171 1097.41 208.696ZM1165.35 246.584C1162.36 242.403 1158.35 240.312 1153.32 240.312C1151.27 240.312 1149.26 240.824 1147.3 241.848C1145.34 242.872 1144.36 244.536 1144.36 246.84C1144.36 248.717 1145.17 250.083 1146.79 250.936C1148.41 251.789 1150.46 252.515 1152.93 253.112C1155.41 253.709 1158.05 254.349 1160.87 255.032C1163.77 255.629 1166.46 256.611 1168.93 257.976C1171.41 259.256 1173.45 261.048 1175.08 263.352C1176.7 265.656 1177.51 268.813 1177.51 272.824C1177.51 276.493 1176.7 279.608 1175.08 282.168C1173.54 284.643 1171.49 286.648 1168.93 288.184C1166.46 289.72 1163.64 290.829 1160.48 291.512C1157.33 292.195 1154.17 292.536 1151.01 292.536C1146.23 292.536 1141.84 291.853 1137.83 290.488C1133.82 289.123 1130.23 286.648 1127.08 283.064L1137.32 273.464C1139.28 275.683 1141.37 277.517 1143.59 278.968C1145.89 280.333 1148.66 281.016 1151.91 281.016C1153.02 281.016 1154.17 280.888 1155.36 280.632C1156.56 280.376 1157.67 279.949 1158.69 279.352C1159.72 278.755 1160.53 278.029 1161.12 277.176C1161.81 276.237 1162.15 275.171 1162.15 273.976C1162.15 271.843 1161.34 270.264 1159.72 269.24C1158.09 268.216 1156.05 267.405 1153.57 266.808C1151.1 266.125 1148.41 265.528 1145.51 265.016C1142.69 264.419 1140.05 263.523 1137.57 262.328C1135.1 261.048 1133.05 259.299 1131.43 257.08C1129.81 254.861 1129 251.789 1129 247.864C1129 244.451 1129.68 241.507 1131.04 239.032C1132.49 236.472 1134.37 234.381 1136.68 232.76C1138.98 231.139 1141.62 229.944 1144.61 229.176C1147.6 228.408 1150.63 228.024 1153.7 228.024C1157.8 228.024 1161.85 228.749 1165.86 230.2C1169.87 231.565 1173.11 233.955 1175.59 237.368L1165.35 246.584ZM1201.74 265.656C1202.25 270.264 1204.05 273.848 1207.12 276.408C1210.19 278.968 1213.9 280.248 1218.25 280.248C1222.09 280.248 1225.29 279.48 1227.85 277.944C1230.5 276.323 1232.8 274.317 1234.77 271.928L1245.77 280.248C1242.19 284.685 1238.18 287.843 1233.74 289.72C1229.3 291.597 1224.65 292.536 1219.79 292.536C1215.18 292.536 1210.83 291.768 1206.73 290.232C1202.64 288.696 1199.1 286.52 1196.11 283.704C1193.12 280.888 1190.73 277.517 1188.94 273.592C1187.24 269.581 1186.38 265.144 1186.38 260.28C1186.38 255.416 1187.24 251.021 1188.94 247.096C1190.73 243.085 1193.12 239.672 1196.11 236.856C1199.1 234.04 1202.64 231.864 1206.73 230.328C1210.83 228.792 1215.18 228.024 1219.79 228.024C1224.06 228.024 1227.94 228.792 1231.44 230.328C1235.02 231.779 1238.05 233.912 1240.53 236.728C1243.09 239.544 1245.05 243.043 1246.41 247.224C1247.86 251.32 1248.59 256.056 1248.59 261.432V265.656H1201.74ZM1233.23 254.136C1233.14 249.613 1231.74 246.072 1229.01 243.512C1226.28 240.867 1222.48 239.544 1217.61 239.544C1213.01 239.544 1209.34 240.867 1206.61 243.512C1203.96 246.157 1202.34 249.699 1201.74 254.136H1233.23Z" fill="white"/>
<path d="M535.25 202.125C535.25 282.275 470.275 347.25 390.125 347.25C309.975 347.25 245 282.275 245 202.125C245 121.975 309.975 57 390.125 57C470.275 57 535.25 121.975 535.25 202.125ZM274.025 202.125C274.025 266.245 326.005 318.225 390.125 318.225C454.245 318.225 506.225 266.245 506.225 202.125C506.225 138.005 454.245 86.025 390.125 86.025C326.005 86.025 274.025 138.005 274.025 202.125Z" fill="#31EFB8"/>
<path d="M680.375 298.875C680.375 379.025 615.4 444 535.25 444C455.1 444 390.125 379.025 390.125 298.875C390.125 218.725 455.1 153.75 535.25 153.75C615.4 153.75 680.375 218.725 680.375 298.875ZM419.15 298.875C419.15 362.995 471.13 414.975 535.25 414.975C599.37 414.975 651.35 362.995 651.35 298.875C651.35 234.755 599.37 182.775 535.25 182.775C471.13 182.775 419.15 234.755 419.15 298.875Z" fill="white"/>
</svg>
